<mxfile host="app.diagrams.net" modified="2023-10-09T11:21:39.125Z" agent="Mozilla/5.0 (Windows NT 10.0; Win64; x64) AppleWebKit/537.36 (KHTML, like Gecko) Chrome/117.0.0.0 Safari/537.36" etag="8AmipZ1526hlDQ7TSLeZ" version="22.0.4" type="github">
  <diagram id="C5RBs43oDa-KdzZeNtuy" name="Page-1">
    <mxGraphModel dx="1014" dy="702" grid="1" gridSize="10" guides="1" tooltips="1" connect="1" arrows="1" fold="1" page="1" pageScale="1" pageWidth="827" pageHeight="1169" math="0" shadow="0">
      <root>
        <mxCell id="WIyWlLk6GJQsqaUBKTNV-0" />
        <mxCell id="WIyWlLk6GJQsqaUBKTNV-1" parent="WIyWlLk6GJQsqaUBKTNV-0" />
        <mxCell id="WIyWlLk6GJQsqaUBKTNV-2" value="" style="rounded=0;html=1;jettySize=auto;orthogonalLoop=1;fontSize=11;endArrow=block;endFill=0;endSize=8;strokeWidth=1;shadow=0;labelBackgroundColor=none;edgeStyle=orthogonalEdgeStyle;entryX=0.5;entryY=0;entryDx=0;entryDy=0;" parent="WIyWlLk6GJQsqaUBKTNV-1" source="WIyWlLk6GJQsqaUBKTNV-3" target="w42pXRV3Yn0JbkUwSTeH-0" edge="1">
          <mxGeometry relative="1" as="geometry" />
        </mxCell>
        <mxCell id="WIyWlLk6GJQsqaUBKTNV-3" value="Get All Selected Meshes" style="rounded=1;whiteSpace=wrap;html=1;fontSize=12;glass=0;strokeWidth=1;shadow=0;" parent="WIyWlLk6GJQsqaUBKTNV-1" vertex="1">
          <mxGeometry x="267.5" y="10" width="120" height="40" as="geometry" />
        </mxCell>
        <mxCell id="w42pXRV3Yn0JbkUwSTeH-0" value="Create Reference Object" style="rounded=1;whiteSpace=wrap;html=1;fontSize=12;glass=0;strokeWidth=1;shadow=0;" vertex="1" parent="WIyWlLk6GJQsqaUBKTNV-1">
          <mxGeometry x="267.5" y="80" width="120" height="40" as="geometry" />
        </mxCell>
        <mxCell id="w42pXRV3Yn0JbkUwSTeH-2" value="" style="rounded=0;html=1;jettySize=auto;orthogonalLoop=1;fontSize=11;endArrow=block;endFill=0;endSize=8;strokeWidth=1;shadow=0;labelBackgroundColor=none;edgeStyle=orthogonalEdgeStyle;entryX=0.5;entryY=0;entryDx=0;entryDy=0;exitX=0.5;exitY=1;exitDx=0;exitDy=0;" edge="1" parent="WIyWlLk6GJQsqaUBKTNV-1" source="w42pXRV3Yn0JbkUwSTeH-0">
          <mxGeometry relative="1" as="geometry">
            <mxPoint x="337.5" y="60" as="sourcePoint" />
            <mxPoint x="327.5" y="170" as="targetPoint" />
          </mxGeometry>
        </mxCell>
        <mxCell id="w42pXRV3Yn0JbkUwSTeH-4" value="" style="shape=image;imageAspect=0;aspect=fixed;verticalLabelPosition=bottom;verticalAlign=top;image=data:image/png,iVBORw0KGgoAAAANSUhEUgAAAQkAAADjCAIAAAAZonZjAAAAAXNSR0IArs4c6QAAAARnQU1BAACxjwv8YQUAAAAJcEhZcwAAHYcAAB2HAY/l8WUAAAASdEVYdFNvZnR3YXJlAEdyZWVuc2hvdF5VCAUAAD8ySURBVHhe7Z1nc9tYl631E+ZWTd2p+TA1d+beeju3sxJJJVKBkmM7yllOkiXnbMuWkyzbspwlp7bnr773ARZ0BIEkCIAAg8Rdu1cvHx5CBM5eZ58NgGBLOp3u6upyYyaT6enp6e7uzto2aNuwbSO2bd++3R/VeWhoiDdqI2wQY8uevxUBT2d6P6TzS+nhpXT+VjqXKdd/bSCHzof7I8dfYwfm83lG1r9/KEylUj7cII0+PCHs7Oz04aWQPrlcjgPVwv+wgYEBQtkOaUcAO3bsIMplHq6jLCP6+/v72UJfXx/Rz4Cxz0JZEvx6JmdrY/hjOn820+e0VrbNspyjFoSLYPHygCgr5L29vQyWRhbCP/37y9y8JqZQllXOfVDm5swgLQp3D2I6lCACQjkY0Y8RB7yNrUCSQMajLB/MdD1ND5A3kMer9OD+TI97Cw2ECr5QnGEL+14hMxfTn8YUYyjdr/ogfzEIh4TlYBDug2amj4V7sEXRz1Ej+s30r7QbwRgShyXMD6a736SHbHnkZ9L9uajbwdw8FuPIOqwcD4WMIgPW3t7e1tbm37MUsqeSh4y1ltobyBTKskIeLxapNxoFJ9O90gbZ43I669OzQdEENJJgtLZt29ba2oo2QHhh6AdBZj0mQWmD1QGzoftvBUQ+jA83SKMPTwg165fiobCFjyvj3w4r4By+4ByrDie13U2r8Mi/Sw8dTzvVjiwUD7uPcBEsOQ4yrh0dHYhh8+bN2WxuYHBwx45d23fs3LhxIy3qIwvOQSQhbYCUi+yXOmDu/jUxhbIsXu6DMg9v4LwB7ujqfm4VHpY8nqcHt1vNfv1rhQq4UJx5ixHaYlvWOm0yfOz4icmpC5evXD05dnr/gYN//vmnkUfhdsoiCyo7eVgKGRwcVA1pXuVPB+GQsBwMwn1Q83oS3INW3oCBslK8bu1Euue9s7LKk0Yi1kmBLcixKuShkNFi4bR161ZCP5frRxXHT5ycnLp46/bd+zMPHz+ZBcdOWfL4448/PPIQyspyndu1Trxs304dInnUoSl8ZYU8IcQaO28Ir1qndC1tLKbzk5k+n571iQpWOMsnTLmiL5vLD4+cOn0WVdy5Oy1VPJt7IX8w80jyKMweodCc20Ue+Xyef5bqSaz4cIM0+vCEsDADuHlkDFRvOMyXM7S14tlM5lG6/1M6j79JDx7KOKeY3X3KchGs+hxkJNra2sgVGzZsoK7Yt/8gqrh85ZqtikduVRg38nBnD1koTrqQPDCd21V7NU2hLIuX+6DMh6/kDR0s8YbDfemuhfSQ5PEk3T/UleAVGA+6j1sErlxBcFNeD+WHifWz58alCqL/6eycRxJuX5bHoVKLq4DIhyFpKHsgDyp1gsO86uGQsBwMwn1Qc3kS3AdX6g03yirh1bez6V7WVJLH9bR15j6sVbK/4sGR4eHoU1cQ0+SK/PAqVTx6MuuvCuMeebBxY/pbAY3O7ksfyMN5oQ5MoSwr5AkhthbqDYO30zlp42M6f9o+pevfv8pogtWdKyi1bVVMXLl67d70A5ZPAVVh3C0PNqg/YUQYCgcHBxEG2QMcGBhwv0qseLhBGgPyhFAzfSkeGWOrNxxWU57PdD1LD0oe8+nBPRmrnIiwHYfFzRkwjvi2bdvs9U/XUD5/5MgxSm1UoVI7rCqMI4/TZ84dOHBoi12xKDJk+uuyUtxt/f39duawDKlI1UmY+0PGy31QVpZLHsXrjSC8PvFIpuedVXgM4zPp/t5y/f0x7DEpxTESRWtr66ZNm7K5HHWFfbGiYlU8X/a5Fw8fPTk3PoHYGGESiEZan8GDvOTPWVDp3C7yoA5Ro+kTkGtrZbkPKkCT4AGxeL0RBGV1yC+l+5as1GFdELy0XHhE2E4syJBwlHWxYlkV1sWKGzdvr5yAMiFeic+9YGsT56dOjp3qTKV+//13jXE06+vrMyevkEf1L30olGWFPCGUMWrMaL29vVbe0EBqhlsD2JNOkzGUOsghRzPWOXuf/rGg+xiKY21tbaygyBW5fs8lvFhVYXzuxZPZOf4E8mC0kQcjbT5PQFRwwJEHqlD2QCfIw7yqzQbkCaGUX4oHQYyd6unpIU+ykhwaYpGbZ081KYDevCFrdL4z3UW9IXnMpQeG7cIDq2Sb/tyNHPr29nZdwrNu99AlvAu6hJeMKlw+O/dC8lD2UMTI9AmDG3Gjc7uKFV0ZrMTcHyZe7oPsNXMWHz6bzaIBiig7/p2saMzdog7R6424eBLI9k+lez6yskpZ8ridznYvt7v7xM4ZCeUK6xJezr6Ed8a5hEe5/PhpsqowXigPhYg+bUAOwZCHTl7JzJVBdx/DtYWy3Ac1o0fjmMkDmPIAn1lBXwrpg+n7ebwX06bYcvR6Iy6UJcGvp/s+p4c/p4YX0/lzaeebbgkhh1K5wu8SXkEQJ+ceeSiGohmyd8uDGHJeiNtMiGOF3I0ccIIYofrkAbepA2qhM5+fN2qJqA2aLcsM99YbYXk942BX19N0v+TxOj2032r2618KfY6DDiK5YvkS3oguVly+eu3OvemVE1AFsZukv5QXXVzp83uQl3w4yP7q3C4RRgVCeLlfpXMSiCkPaC1EZGOKdYxPUgox63uqAwOso5QH+JyaHUJhlLwhawiurwda8kgPP04PZFe6hNhOUcQ4fLqwvfoS3vV795cv4XmjNrg78V2hx5g9MCRB8MmYgM1x8DcT6FgpzqaIY+UBYppFjgl0/TnMzTH+STflAcSDijRhYW6BgbKyXAfHzWtfbyTNJ+1TusoeV9PZon1CcQ4ch0+X8GhlBXXkqC7hXVepXaAKb8hW08vWHpDgnPBVjJI9iEsiUltTHx9uvd/OAxihTECTBKQBbdAHMf4WmuGvm/MB2qYJ6LI8Ata+3kga+d89razSwx/S+ZNpJ8lGQI41h0yqWH0J77pVaqOKZ6jCG501d5c8rBO7GvvIRnQqajGC2xSvxjhWmKkH3Hmg0Ew7hG4Ihv6Ih7drSsIU4jGirBQ3tlJvlMKAs2mFPC4suv2RdOZFekDyeJke3Ll8E3up/oWceOJgLZ+WtS5WmEt4UkXN84O/e+Shsdc+goXcII2FnLmfUFZYg2iAaGZqJ7Ld7aUQoyf9eRfv5SBjZvselJJL8UTRyRuyQp4oypLjbjyW7iZpSB7T6VxPsT5FkZFY+RZefz/VtrmE1xCqMO6RR2trK3sXxDgOGBM5GYO1kDsPsLIqanpVGiB18C7ei6KcLdqmEJcF5wFRVpZLBqX42q83DL+iU7rWBcH81PIpXZ/+HR0dK5fw9C28M2enLly8c8++WNE4qjDulsdvv/2GPIgDdlZ7DWevVQ8U5gEiXo/tg4AeTh/lAYwtsB1tuRSaQEyUV4hrv94w2Gd/PVDyeJvOj6adM9yFyHFpa2tDEhs2bGC9vH+/fbHCPi1rqeJp46nCOPJgHainMVA4sb/kAWmAKFe4lzL6kDHQAKmAtRCZRG/Xq7yX/MDRK2sKX1khTwhlpbgxht5hQeqNStBnVq4J35fpeZ0elDyepQcGl9uFmP3FioJv4S2rYvkElDfgGsxteYydOn3gwCEJQ5IwiKksNqdHMR0fIsaDGFJBNnovylFjYc/gqJm7FK8alqk3ZMF5/aP99UBLG/jNtDPPcSAwXaxwfQvP/r7RqosVBXHWoO58I+oM8lDo6/Qo84iOUlhDQpIHhjzcG1FYy6LxgCgryxnogNwvb4SdlRuF307npI3FdP5suodEoQvb9KHIPHL02Lnxwkt4BeHV8L4iD0pzdp+Y4ODoKImDwbmRh9KODrjpA5rgS5THiJY2MHZPBBNfwziYzsylB7+k8/irzv6RzdtKXKx4XhBPa8y98uD4VGK69KHsATErMUzhKyvkCaGsLEcGIpibJ1tv1Cdiox3p96nBLynkMfy41/lmhblYsQ5UYXxFHr/99pvJHiDHyvDgSIFO0lD2QB6oxb+/Qc3WpXhNMOZ6Q1a3nB02Fysu9Q5+zoxYqrjQeBcrYvVleRwMlD0UsrKinNUUdbzJHlQyasfKvhcTD4iyslzhHoqDSeWNUmv9WnF2tbW1FVXoG9vUFSfHTq1crGjk07Jx+Io8fLKHm/sjR56KXNkD07ldE3yx83iR+lO8ZL0hi8brCtlJXcLbuHFjNpvbf+Dg6TNn18bFilg9XPYoZQpZWX9/v+QBwmnRq4mirCwnKkSwUnwt1xvsXpv9IM0///xz+bSs62KFdV9gUxWrvFT2iIaMAhlDqQN5DAwMkE/cfQhEH15zXJv1Bmlx5WKF6+Fod+7dt0vtpipKetHsoZCVheXUG1QdUggLLS10scL+AVFWlivEQ3ERTHxN5Q3tkn7Jxc4V1rfwVl2saKoigLuzB+WZ1t8c2IBoAs7w3t5eaYPskbdvay/sE5bHi6bGcHOn3ghiCkFZvXGOGrskVTiPDFz+vhEjTVGxnk7LxuDu7EHuVdCUMoWsrJAL0YPJHjq36361QpSV5eyFCObPhQ2fN9gNkD3hnxz0Xbt2r7qE11RFVLcflHieKYYwIQmzRuUI6ziHRcYI7F7+MQOyB4S1ltrdfeoHmWobpt5gnYox/WSzWao6Vq5kZw4xiO3evfuvv/auuoRnnYDyjnfTQzmrUORh39NufZ/WvbiSheUMqG5tVPZgKPVqWZSV5QrrUFwEK+RO3oApED28JsgEIw3kXE8ZwswvoOufRhV799qqMJfwmqqIz5/OznFgJY8//vjDnT1MkIXimFse/f39/v2Tw6I1hpuHqDfiNWSgPEBu5QCRBzhSGIeM6C9qysW6d5o3kjUQymn3942ePvMMbdNj8LkXRh4Bs4c/Yoy45IGxClCj/7s8KCvLCXERzJ8XYjXqDese6IKnS3BQiHXlgULUUaMn/TmOvJFN8Ym3bt1a4hJeUxVJuksenuxRChksHw4yrIQBw81AM8o0ul+tCXqyR+i8oXCXeTh5AA309vYqD0gD7LzCXSgzHEIfTBrwfIvAvX09SHP5YoX7El6z1K6Kh88eskJuULe1ax4kABh3Gs2rsrJcoRyKi2D+vEy9UZQjAHaDHcPQAHulPbRE4JKBBzGjAS2K2I627I/MUtiu3bsPHhodnzh/5er1u84lvHWkirk6cJ/sYYIvLHdfGYQQV+bVJNCTGUpxPhi8TN5QHiCU9eVJsxuEu0yhL5MAtJNohrcgHnceiGaMAUup4ydPTk5dYOn0+u3bt+/fv3v/4dXrN68WLH/+ch5fGcJau/kka899skdkZJZ0y4N/luopK8WNEdYOK8f9sYX/iF0MBWMmD2CKdQW9B82esHBCA8oD2quic38l2Grb5NTU/QczC2/efFz65PH3HxfdvvDmrVs2K+Ma0s0bm+52jzyCZw8fJHKIOgUVxnzq3z9G9MkeLXwUSwGljQ5GA8oDJBMFbhLm3rK47he8cu3a46dP37577xGGj/tq5pVnyJse3APWHgFRxuzMvGxCjkhTu+mjkI3MRTB/7sYWPoqygTSAqR5AA548QO+acJIGhfiVq6G1UdqX3JpZvTx71ZRNEI+99gAZa2JPoQgShO5XI6NPZnBzPoyHt7COUm1Na32a6o0IeSO8F9OMLZumZgodeUy5sgfpncFSuFeCSMKsZXTpw7wqc3NjhLLDivFoaNUbRWfruHjlqHoj1rwR2t2awY1m1vnybEUenZ3IY8uWLQwZow/SEhmZr5GHFMJCi4nbv39YDJhJanZdPLhFrjeq4B7NrMOSBnkwbZ0cO53PDyMPfSNK8vBBmQ9HHizvJQ/KdCMPdQjIRTB/XgpXrm9AEuVgNJ5AvZG4ezTz7sNaLmmePX9x49Zt6572A4eoPTZu3MjAMYIgQebhwZGlvuRBPZx3feujFAbMBm7OB/PhDZA3qlhvVMFXlzTSjC2bhtbMs+cv7967P3baedTVpk2bCC+M4QuIMg9HHqjCLj2sC8e99rc+jBG+DivGK0er3tAH0mzt5j5It6rxRswbEdytGdzRzLJsPLFYh448Hjx8ZOSh7EGQVYgEAPLQ4gp5ZLNZ//6l0Cd7uJGQM7xZb9S7ezTjlDR1qRmPPDzZQ1aWK2TdHKMilzxAIw93H8NFMH8eBKtXb0Tm6yRvhHV/zdRKNgllD2xgYMDIA64I0RyvPgE5bwzIm/XGGnS3ZlZKmtdV0ox/9nCjrCwnTEWKXvqQqU+86FdvxMUrxGbeiMvdmsGNZpJYniWRPUAWVFQdyh5DQ0OEh09/T8bwcIOEWVHeYPXGm6Y2EnCPZrwlzQtv3Ad0/9pDYRqB97qe1k6Z3rX8rQ+MPg4rxn1Q5uHOdXFQf7gsx6rM3XmjqY1quo9mXrx8hXvEUOhJZA9m9B77tnZlD0i3/UUgzfemDyFUCQebeaO+/PjJky0tLbfv3vW015mXuErzuohm3PLYsmULYYcxrCKYmxsjTB1WgpMuWFMZeejSh16NC1fqjbBoZvek+brKG6NHjqCN6fsPPO2N4m7N4EoyT2efnR2fOHhodPPmzUxzjCnBVzkiD93WjjywPvvHDJjvTZ9CbpDQ8uHCxskb60Mb+/bvRxszjx552hvcl57Mzk5OXchmcwxle3s7waeQhQTnIpjhvKpzu7JcLmdeLYsyHx663qg+X1d5Y+euXWjj8dNZT3uj+/zC6/szM9t37CB1MCUTfIyvP2ouD8KRhLIH2N/fT8zQTvCYPgE56ObNvFFfPpTPo41nz5972hvd5168YPhy/f2UHAo+GaHpsHLcH7PZrFIHRiZBHv79yyIWvd6oGq6rvNHT24s2XszPe9ob3aUNlE/eUOQxspWg5ng3pxyXNsgelOnd3d1qN0g4+fBCXMkb/Nth4Xmitq7yRnt7B9p49fq1p73RfXZujiIK5TOUBDTBo7CGFHIRLDgX6tyuFJLP55GH+1VQFpBHyRs+tUESnKSxfvLGH3/+iTbW3G4uoY2796aJXZ3GJfgY30Jktg7CzRYKufnWB6Zzu4V9wCC8WW/Ul//nf/4n2nj/cdHT3tDO7sw+m7tx61Z3T4/JGzJ/Hg2ZT3Vbu+TRZ/+YgU9/gzLDm/VGXfkSwvjXf/3XgvbG9tdv36KNifOTWgUwrEQeIxsWNa+X4gYVNuaBV8gjl8up3d2nLMZTbyTKyRsk4vWgjXcfPqCNn37+2dPe6I42nj6bOz85yYgymgQ0g6uwhoiLYMG5P7Jx96WP/v5+vWT6yIpyycPJG/xbH7QO0S431kXeIIbQxpatWz3tje7s15Ons+cnp1hQsQpgTAk+UFEXkBMMYTmGJBxx2L/EqUZeNX18uJU3YKAsLK+CrZ964+WrBbSRzmQ87Y3u0sb4xAT53+QNmXii6L70wUKLiKLRvCorypv1Rh353IsXaCPX3+9pb3RHG4zdufEJ5jiGkjEl8nxQ83cQbpBQ8eHmiT4YZbpOhJpXi2Nns96oJ//nP/+JNka2b/e0N7q/ev2asTt85MjmzZt1MxVGiItg/jwgykpx96UPiB54JRlAUumOroG2gf1t28e27Lu4afTOH8ce/Vqk3kiah0W73GjsvFHqvlrE4LWWFrd7+jeov1pwtEHeYKZjTAlKUFHh4Qx6XBx0c+RB0tg9vnnX+OadZ7fmR7fCD1zbcOT+7ydmfxl78fOplz+5faXecKOsTnij1xukgg0bN7p/HcGK+2J2f2bGLYwV/+c/zXsb0c0NI7qZivBlWKuEqc7u/o7cntaRE1v/urDp0K0/jz78deyZVwZuH5v7mT6jt/9oYRMKwbrFRq83Dh46hDwOHDyof5pwL4z4u/em6Xn0+HHT4tO5gVzaGBwaYo5jTcWYKuo0rwfhBgkJH57pSfUMtw4dat15dvP+qxsP3/v9xNNfx54r6P9RBF/8RMY48uD3A9c37J7YTCbJ7mhPd1urPrbWrDcS94U3bzdt3kzQO4FeeqV089Ztuo2dOu1pxyUPzNPeEG5uptKNhowsZggmHhBlqXQq09eR3dU2fGzrX5ObD9348+jMbyef/ULQn17ttgwsH3v+8/HHv1JLUFFQVyAG1lS4Ln1IYNq4eA3qjbCcpNHo53CnHzwoKwz86rXraOPc+LinXe6Io/Hk4dxM1d3dzTgSdoypUKNsgtKHd6bbe/IdA/u37Ty9dd8lEsIfx5/8eur5zy4NrOIoAZ0cnfn10M0NeyY3DR/b1reztSvnCECYzWbd3/owf9Fg8Xqjmijz4Y2eN4wqsL5s9sNiyXulLl66TJ/JCxc87W539NE4Cnn/8aNupjI34WIMqw9mejv7trcNH97GpH7w+sYjD3478exX1j+u6F/llNGsnRDM/isbd5zZPHhwW89wRzpjFTZmmzI3x/RjBmgD06UPJOG81tm5qt5ImkdD+zRVo9YbTiDb6YJBIPTHTp1yd3D7+clJOly6csXT7nH3NuvfX+tmqslJRpNpjuBjTBUVFs+kuvrbB/e1j5zcvPfiZvvk6W9Uw1bQzxdzu1Y+/siqlek/cnzLwN72TK6NJZaZ70OhObeLPHRbu3nVmzdkdcWpxRs3byiMxXVpD7t9547p4PYz587x6rUbNzztha5E5GmsT0cbzs1UqVR7elvvcBu18q6zW5jjD0//cfzpL1ZC8Ahg2VkanZj99fD93w5c27DrHLVya+9IW7p75UyXrCxXuJfi5rZ25AGRPHi1WW8k6G5hyG/cvEX0/5//+q+i3+w7MTbGq7dKKMfjjSIP52aqqakjD38ee1Y6IaAEauUnvx6++8e+S5t2nN7av29b91BHKr1yJkpRIQ6G5T5IN93WLnmw1qK99vVGWWzQeqNQGPJjx48jgN179nja8cNHj/LSvfv3Pe2lvCHk4dwwMjFx+uU/VmRg1co/H5357dDNP/ec3zx8ZGt2Z3u61wpTBBAWZUG4MULfYcucYHM/rR15OPVGWOTvVY03aL1RShvvPnxIZzJoYHJqyvPS/gMHaH/w8KGnvZQ3hDYW3ljaYLk4eu/X/Zf/3Hlm89Chtp58e6bbmrMZX4MMekCeEGK6rV3yqGXekJXljVhvlBKG/OHjx2gA8zyHatfu3TQ+fvLU3ejv9S8PczMVg8hQMqxMeaVQFpkrxCNzkH+ap7U364343V8Y8qmLF5EB4/H2faV7VOfymF++mUo3GmpkTVCW5WBYHhB112NRrtvam/VG/B4wWP/auxd5HDl61NMe1oNIsYbuvplKIUjoR0NZEF7UCH2HleNgb29vxHqjmth4eSOYNuYXFv7x00/II8hJWx8Po42lF/Pz92dmLl+5cuLkyYJXE3GjDd0wQtgRxCAjW5bXEJGxkzdkwXk1seHqjYDawO/cu4c2PI0RvKg8WK3NPpu7fffu+cnJg6OjvX19//Iv/4s/5zbPW5JwczMVg6iwQyGyyNy9nQhcBPPnofMGf6PKfDlvXG0IbQQXRowubTx89Pjq9eunTp+hpt+6bZsT/quNA7p3//6z4+M3bt3ieHq2k4CvPJnK/URDE6yGg2F5QPSpK0pxPhi8geqNpjYcf//xIwuVu9PTFPSUKwODg9KGE/7L9n//3//jpSPHjl24dOne/fu8hTd6NpW08xefPpu7cdN5MpWCj8jzR1kQXtT4Kw4rx/2xgeqN9a6Ns+fG9+7bR2g4se8yaWP3nj2nzpyhenn4+PGrhbp4aqhuGJk4P5lefjIVYSdkZA2vIfpkj4j1hqw6fLneWO/acHTQ0vK//+3f+vqyh0ZHz09OUU6waJE2PP3rwR1t2DdTMY4KO6Y8WVnu7l8hF8GC82beiNmTC9PLV68+mHn4cv6Vp12enCYrcfuGkdlz9tN3TN5gTMFoPCD6ZINSnGDzcOvaH8afF8H8efWxwfJGCW3MLyzMPHp09dp1T3ssXp/CwJ2bqcYnKMQZR2KOATUoC8uLGqHssHI8ODbzRswubTx7/tyqlS9cPHz0aK6/X0+ANuZ5S+Vet9rQE0ZOjo0xu6ENQpywqzkGzCQr9YYCMRrHkuN1njcW3rx59OTJ9Zs3z5w799fevdKGIwKXtbW37/nrrzNnz16/cdOzhcq9brXhvmGkzfUkXJnhCsdYuAgWjbuxmTdC+IfFxecvX04/eHDp8uXjJ07kh4d/+eUXJ/aXTdrI5nKjhw9PXrhw59692bnn7z588GwqXq9/bTCCoeqNgBgwA7g5QRWQh643ZNXkNcwbT2Znb92+M37+/P6DB7u6u53wX20bNm7csXPnyVOnrly79uDhw5evXkkenk0l6nWrDfcNI0QbMSdjWB1WB3VFKWzmDT93wt9lma4udDI+cR7NoJw379553oLHog3+1r//+7+TpjzthV63wsAtbTyxnkzF7Oaev6uD7r/ozw0ScobHU28kymuYN1g1HTt+4uLly6yjCFOfR4S4PRZtHD95Enns2LXL017odawN64YR62aqHuvJVMSiwpGRxSrkIlg0HgQbIG+QNGqVN6J5LMH6/uPH7p4e5DExOel5yeOxSDEZX5p9tvJkKs3HhB1jCooHRPPe4JzgqZBb9QYMlIXlEYxD47C6rzcieyzyePTkibWMa2m5PzPjecl4HQtj1c1UjCBhY4xhdVgJIzQdVo4nh816IykPK4+zegDP9VUXB/U0t22tra/fJlXYJOfuG0ba2tqYjyGEXezo3rI/L4qEWVFe7/VGuqszM7C1b+/GNa+Nk6dOIYObt2972vft30/76OHDnna8gbTBBEeMKkwZWSwgF8Gi8Qgogzt5g3+A0XiM2JVNZXe2DR9r3XN+86GbG47N6BF3/zg9/4+G0wYeSh5Hjh1DA3enpz3trxZe//b777x05do1d3udCwPXDSPjExOb7At/mo+JHB9094nACaFKOOjmldYbkTla6BpoH9jXtmNsq/VLOXftp/+++PnMq3+cmf+HhfJ5Sxj4+dntN5+fe/bu4bvFIquLuvXg8jhw8CACeDBT5AE8CIaXMEpbtdS/MHD3zVTkDYa+0AhNh5Xj1ccq1Rvp7o7sjo786NY9E1sOXN9w5MHvJ2d/OT3/kyODAuSlk89+OTLz+8HrG3ec29B/aNOlm1OPnj5urLyBW9oIFse79+wh+qm/Pe3yM2etamRgcBAefJu1dedmqlOn0AbTMAHHnFgJal4PwosioRiQC53r4hj/dliFPNXZlevI7WnTL+WM3v7z2KNfx57bCcH46sxAutDDHvde3LTj1DaSSfeA87BHNtja2srBbcQ1lVxxjHnaPT48MuLODIU+OJSngxJRwFxUWzc3jGyxbzQkSBS+kEIugkXjEVDmwyutN6xfysm35Ufbdp7dfODqpsPTv5+Y/fXUy59WBADaiyKRM6+s52Afe/Qb5cRfk5uHj27J7epI91pbK/W37MsbjXeeyuOOPkorJJvLEfo+F8KNKu7cu+d5qT59WRtHC/OG5unInMCIi4Ol+Eq9EQQJ4uyu9uGj9i/l3PzTrpV/Of3KXhoVc+c52NO/77+yacfpLYMHWruH2tMZNlZ8+zIPb8TrG0XdEUcJeVCBoY35hQVPu9wIA/vp559Ldasrd99MpYCTEZoOK8brBDHr0XpFZ2v7l3I6B/a3Wr+Uc9n6pZwTT+3fBykQgPFTz0kIv7KIYim1/eS23J7W7n7C3N6athkJG/T6Ril39LEc66Zdv3tG/WpanJ6Yq6eeJ7133z7TrW5dN1OZGw0xJrsgqPk7LDdI2ATk/ujUG5mezl73L+XM/E4p7NTKxdyqle0fETx4bcOu8S1Dh7b1jrSnu8tkAIeF5I1ebxS6CfciXtRcEnrz7h3LE+Rx4dIl01iX7txMpYviBDEDKpRF4xFQFopLHi2jd/44/vjXsRfLFYK7NljmpAtq5dE7v+tHBAf2tXf1t6UzzrzOtswcnwRfG/VGKV8ljNXa8PQ0/uDhQ2tp1dLy6HHxk1r14UtPn83duTeNNpjaGEoCjpmOkQUDct4VFwfD8hYjA/npV/+wfl955reDNzbYP4ywrW97W6aXztYsXhNcM/WGj7//+JFY/+///m9Peyk/PzVF/0xXV9LfmorsKzdTdXebvCETrxOUFeUtdq1s/YjgzjNbB/Zv6x3uNL+UU3QWrz5f23lDzkqJWN+wcaOn3cf1gwTHT5zwtNeJOzeMnD+fzmQYPgaU0WSyc6Pm6bDcINsMyKNhuPNU8aKsLKcWX2P1RqHPL7wm0JmyPO0+/mJ+/j/+4z88jfXj5mYqRpHMT3AzoEKZP4+AslBcMijFV65vKBzrkDPrrPk11fOX82ijry/raW9cd24YsZ9MxQgymgQcqJE1gRg7B8PyUljLvBEQ1955qkKfnZtDG/nhYU9747r7ZipP3qgJykJx6/oGIQia2bosjxH5HGW5VW2s9XqDXUMblBCe9sZ1XRTXk6lYFSt+QOZjH14UCYaAPF5s6erqgsn4Mw4rxmuF66He0GnZ/QcOeNrL+uL7D18vXP02cenLrXufnr/4uLjk6VArNzdTMXZ6MhWGDEQw8Qgoi8wV+kF4Szab1QytQKxDTtJY8/XGven7aONwpN83W3r+8vuu0R99u/FvU1cWgz3wIWl332iovGGCLxYOVsKDYMvw8DCMt9Utrod649adO2jjxNiYpz2gf5me+Z+cpY0f2d2fp0t+ubya7rmZirBmKKuAsrDcmD6qrGVkZCSTycDMbF1vfD3UG9du3EAbZ86e87QH9cXFb5OXf/Tusnz34U/Pyz/VKml3P5mKNZXGFCT4SiHBGpBXB1t27NjR19fHPzD+vAhWP3w91BuXrlxBG+fLPW7Hx5fevP17dEzy+HtsfLHin2auzFdupmLsUAXGUIZCWWSuEK+Et2zfvj2fz/NvAhGMPLsH4fy9CHw91BuTFy6gjYuXLnvaQ/mnp89+5PdJHl+v3iJAPR2q6M7NVF1dXYwdocZomuALxcFKeCVoaUPLKv4tY9MOW+a1xfWQN86Nj6ONyn+d48vNO9LGj8G9nx9V4acui7vnyVTEOsZQxoiysNwYoe+w0tzSBsuq3t5eApF/Vx9NlijF10PeGDt1Gm3cvOV9AE9YX/zw4duZScnj+4ETS69q86t/yzdTOTeMmJmY0QzFa4tWLY48BgcH+TcfC5TVD18PeSNGX5p/9X3vUcnj28TFxar/NizuvpmKqY05DmMoDcoic4Vv7FwEE28ZGBggbwwPD2ueLjuLV5+vh7wRr39+8OhHbo8lj77dX27X4MvlumFkfGJi46ZNyhuMpglEw93tFfIKUVcnPbyF1ZSWVT09PTRh/EkRrB54M2+E96Wvl64rdfzYfvDTs+cFHZL15Zupxhk4ho9BRBLRUBaWGyPEHVaOF6J1ryHa0LKKf/PPesNm3ojgi2/f/X3szP/07sIhi66voVfBl2+msp5MpScaErggo1mU1yda2hgaGkIbWlbRiiko64Q380Y0/zT3nKQheZBGqnlK130zlckbslBcYRo7F8H8uXUfbl9fH9pgWdXV1UU40pIcBqwx3LyZNyL7lzvTLKvQBuUHRYjn1eR8WRtHN23apLzBaIIEaAQeIxatK0px57tN9qpqe39/P/+My9g9h1XGm3kjsi9+XPw2cfF/enfi3/ceXXpZ/Hf7Y3fdTDU4NKQ1FYPINOePsrDcGKHssHI8ODrf33Avq9RSP9jMG5X40sLr7wdOSB5/nz6/+L4az14wN1OhDQaRUCOg6x892cP53l82m0UbWlbxTwUlpB54M29U6J8fP/0xuFfy+HLjjufVBHzVzVQKNUZTVpS7+8TIRbBo3Mkb7mUVL9CidjevFZI0mnmjMl/6evWWtPEjv+/Tk9mCDvG6bqa6Z240VBSBBK4PjxGL1g/+XJ/Tza16AwayoEIb+XweLlO7rIa8mTcqd5ZSf58clzy+j44tvX7j6RCje55MRZAxiBpTESwIN2a2gAXnlePK98VzuRzaYFlFDlFLnaDqjctNbVTmn15YXw+UPL5NXk7u64HLN1Od1zlGwp1QqysMmEmsvCHLZDL2qmo7tQdB6bTaOnZYYE5Ax8ibeSMu/zw98yO721pZZXd/uffA82pc7r6ZirFTqDGaWEJcBIvGS6GTN/gHqGXV0NAQ3N1eW26XG816Iw5fXPw2dUWp48fOQ0vPX3g7xOHODSP2k6kwgpjRTAgDZgA3J6gC8pV6A6QQV+ogG7rbDcqqzJt5I0ZffPP2++ExyePvE+cWEzie5maqTZs2MXaMoEyjKXNzY4Sjw8Lw5LCF/5kZ2r2scrfXFpv1RryurwdKHl+v3Ij9XpLlm6nGmNHQBjIglmqCnowRhBNyagFX6g0FIssqynGWVU5rwSzusCryZt6I3b/cvCtt/Bj46/OjmH+owH0zlfliE6OJVchFsGg8IMrgK/WGPsTAwAB5Y2RkhEa1g6ZPTbiWrU1txOiLHz5+OzMpeXzfd2zpVZy/kGa0wahVcp7KZ3YPwgmeCvmqegPs7u4mb2C9vb3u9hpiM28k4UvzC9bXA3sseXw7dyHGrwe6b6YiwhhBzBAsGq8+rqo34FThWlaRQNztNeTNeiMh/zzz2Pp6oC2PL7di+3qgbqYaGBzUmooJjnFMFJnpw3ICTC0+3Js3wMHBQbShZZVpl9WEN/NGYr709fJ1tGH5yP5PsyV/2jyMe2+mUjgympgPF8Gi8Qgo8+HeegPuXla522vF7XKjWW8k4ovv3v19/Kzk8f3I6cU3lX890LmZSk+m0hys0SyF7j4BOYGRNAeL5A2WVSQNtMGyqvDV6mMzbyTqrIF+bD8oeXy9eLXCJ7G7b6Zi1Bg+GWHnsGK8PtGqNwhB0MzWYD6f325/nYMeao+A7vdWwpU3mvVGcv7lzn3rfC6FR2735/sPPa+G8uWbqZwbRph9FVGxoHtrATmBpJZQXFgkb4CsprSsQv2Fr1YZqcWbeSNZt74eeMlZWe05/OnlvLdDYHffTMXAEaMYgyirnEdAWQRepN6Am2VVLpdzt9eEkzTQRjNvJOpLC2/+PnBC8vj71ETkrweam6n0ZCrNxxrNCJwASJqDpXjxvAGyrEIbWlaV6lMdbNYb1fHPj2d/DO6VPL5cj/j00YU3KzdTkTcYPgKxUVBmePF6A97X14c2yB4sq0r1qQ5v1hvV8qUv125JG9ajph9H+Xrg8s1Up9CG+0m4ZVFzdlhukIAOyIOjkzdkbq77DpFHNpst1cefx4XNeqNqzlLq29iE5PH94AkWWp4OZd19MxUJn+EjlEGZP68QZTFy57o4SCB6uL7OAfr0MZxtJcSb9UY1fenF/I/dhyWPb+cvLX4M9/VAow09mQpjHDWaHs7gVpODYXnJegMkY5A3kId+9MynZ6LYrDeq7J/vP/yR3Y02/qd35+e79z2v+rv76TsKMgK03lBWlq/UG4XY1dWls1X60TOfnm40s35cvFlvVNsXl75OXVXqsB41PRfi64FGG+QNhk8jqPk4MidY1RKKV44l6w1x3XeoHz2T+feXxcub9Ub1ffHN27+PnPrRvQN5/H38bOCvBy7NPrNvprIvihPcDF8sKEuUSxJu7ldvwHO5nM5Wsawq1Sdp3qw3auKfZud+5Pdb8uje8fXy9WD3kiw/maq7m7xBeJmAYzSrw8GwvBRa1/4wuopgbs5Oog2st7e3VJ9CHi8280at/Mutu9ayCnnk9nyeeex5tdDNzVRdXVbeUJARuNVEWVhe1PzqDYWmzlYNDQ3590wOVW+MT5y/Oz298OYNA8D8ZLt3bJoer1tfDzw7qdRhPWp6vszXA5dvprKeTMWQKfgYQURiRtPD6aOWyDw5XKk39HELeX9/v5ZVZqmj9rAci8aVN46fODl18SJrWVa0s3OWL7x5i7uk0lRL/L70auH7vmOSx7ezU6jF08HtKzdT2d+6YfQZvrIoS5Qr3MPyMnkD7Onp0UVA1leFrwasGSrhHOXW1tZ8fvjQ6OjFy5ev37w58/ARInn85CmrLCOVYmrxDl7TI7jz9UBbHl9u3vW86nbnZqrxCeYy8gYjaAIuFg5Wwn2QACvkZeoNOKYzufrRM5mnj8OS5BxryjukgnVh3d1Hjh49cvTY9Rs3Kf6QyiNbKm61zC+8bqolDl/6euWGtGE9arr01wM51LY2nJupCGsGLiGUheVlDUk4rGy9ITS/JUtc+vdMDlEzxoSkJRa2ceNGsDOVSmcySIX8hlqOHltRixKLWy2SSlMtYX3x3Xvr64EqPA6Plfp64PLNVNaTqRgmgpJQY+w0H0fgtcXy9QbcfJ3D/DqH2qvPIZgIay0GgHxiK8Ux5RY6I5YDBw8eOXbszNlzLMP81cJioKkWf//0/MX37Qclj69TVz4We9S0+4YRJjINFmYGDkuUK6wjcxFMPFDewCg5MBKIf8/qI7shZCeRinKLMZNb6ENuOXrsOMuw8YkJj1osqaxWS7PEL/Qvd+2vByKPvt2fp2c8r+LSxuhh60ZDxsKMixkpHw5WwgMi4RGcW/UGHxGUleJ6+AjLKj5QkP61Mn0GECOx+OQW6hhyC2swfPz8eVst080S388XF7+dv+SsrHaNLr146enguZnKjEVYlIXloUwfT1aUEyGB8gZofks2k8n496xDZIc5iCBTgju3IBKQ3GI/GztFYrFL/GNWib+cWApLfCJg3apl8fWb7wdPSB7fTo4vvl91Kdb9ZCpmJR1z9/F383pDYoDYzmazpAFywMjISKB6A847tazq7+93tzcoh+igFOYWCcYq8dNppEKN76ildIm/rk6IfXoy+2PwL8njy7Vbrp1duZmKY8gRNqYDLovMNV6xcBEiATEw6RsxKMKNOXmDN4CF3I1DQ0PuZdWaQR04g5IKJpGY3EKSRS89PT2Dg0OU+MdPnFi3Jf6X67eljR/9f31+9HS53bmZKtPVxRFTFJmjWgmPgEXrB2v80mkyA/O7xEA8owGDtNCOVHK5XFdXV9B6A66vc2D8Aac18Hsd1lDcGDpBMIy3MQSDmRJ/5YTY6txiSWW1WpDKGlDL4ocP306dlzy+HzixtPCaRvZLN1ORNzhEOnQ6km6UVcLLGjIQYXSI1d7e3oGBAYIes/PBKqORSV9iQDx6o7YQtN4AzbKKDfn3XJPI8Jh5CGMNhimrCJVb6FCmxC9Qy7JUGkktSy/nv+8+LHl8G7ceNb18M5Vzw4iZrauJygwsk5QZMKZyItaNJAcyAx3QMJ3dW3B/ZrhzXRzT8MtKcT18RF/nCNJ/bXMQ41ByHD25BbUsL8NWruJb1yVv3sTXxj0v1tcD+3Zb8ujZ+eXOtPtmKmYNHRyZOVZYUa5wjMBBZQZinbA0YnAbjcoMEoO2IGM7DivGy9QbHs4f0N9jyEv1Wc+coRISHJ66xbnS0tnJzMaKnNzS8Pe8LC59vXj1R9cO/PvIgfePHvPhrSdTbdzIvuvImGNSiodF6wCmUoiBULQTQ/HMgBhQC8Whf2ZwcwbRw1fqjSBIXa8/T9ry79lEEOMQCyUVNGPnFcuUW3RCjCkNK3tCTFKpH7Usvn33/chpyePr4bHZmYfum6kwcxywILzQeJXjQ5QrMxD3hJ/HaOQlIwbnnbbp+MvMWATEFv6HFmEBUUpFlz591jO6j2chBxlszVjKLUYnoMktCIbUcvDQIXJLYYlfqJYanhD7NDv3Pb/flsf2D6cmxsbG2Bd2UHsaAe29dzKDe5nkyQy8RIWNGPSN1KJb82SGgNxguHoDjjr5fHw4dsBpDfxeh60nXhaNMTzKLbZYHFNu0aFmHeaU+HV2z8uX2/esqqNr+4/enXf27Odjsxdm7xR2PhxkB4lyxMCca8Qg84gBzSAGsxGM7Tgsbr5Sb+jvleUUlvq4fErTDq4ZHvA4JMeZsSC0QHxyS0dnJ7nl6LHjJU+I2VIpphZvcFfoix8/fjs3ZWmja/un3h37rF9r8ssbfHiJIZvNejIDGjDC4KXBwUGJgQNitsDGw3Idz7A8XL0BsmPaGT63f88mxoUYQwUyH8tssViGVNCMFWupFCW+Toj5l/hJ3POy9Or1t92jljxSw3Md2d7WlTlYxsejoDKZQdHvthH7uluFmSFeXFVvBOSoQjvDDpTq0+ShuEEOaUAOMsORVQpzy4YNG2yxWCW+rZZVd4gVFi2xnBB7c/PO975daON7avh2Z1+2rZ2/TmZwL5PciNFOLPX19SFqdsfsVxBk3yvkRZFBMTx03gDZZ+0eadG/ZxMjoCwUZ8gNklU8UgExdIVakIp1z8vRo8dPnIy1xF969nT23ekJtIF/TQ/f7OyVADBFizIDUpEY+Dzuz+/ZF1l1eCkMXW/A067fkg373iavAheaWVC5BZNUtAwzJf6qL4GtVoslldVqQSpGLZA3797Nv1p49vw5nW/cuvXq9MRCelDyeNc5eKOz14iB+ZS/hZnPlgRnf2PkUfIGqGUVe84/3e1NrDeUwRlsCIi5ixa3YMgs9LRLfO89L9Qtj548QTQPZh7em56+fYfm+5AHMzMzDx+BN27enLpw4Xom96kzL3k86cytutawbPoksmi8OmjVGzpw7lnHn4NmWQVhK6Z9LXGDYY9PdXjlyM5qjtQyrDC3pHQ7hn2jHlI5duz45NQUfuXatavXrl27ceP6jRu3bt8m1dy6c+fylatnzp4lF11uy3xPW9oAr3RY6cLnMxRFPlWFvCxq3/25kzdk/tyNLKtG7NNt/fbXOYr2WasoW5Mckslk0IM5oWSM4QZ37tw5YlcOvGqfEDuKPKSNi5cvHxod7aCK2Lr1cWdWqeNTKn+k3bprW9snfEWw6vAIKINHqTfEOTpaVtES9r1NXpaDSXMQoyzu6emhdMzbPw6MaUUAavpjiHlJp1aVXpRbNmzYYC3DOjut57x0dYFDQ3k2S4ddHWnqDcnjVWpgyP5Tmo/1dyNwDk4SHCzFI9YbIAdLB5Hj4t+ziRWiLBYOUWZADMoGthxWGY2IgRUBC2YWCOa9hJQQI3RYiSEDU7GAtKgPdqYj881eWeHTnX28Te2Y6YMV8vrBKPWGOIeYg4g8svaPnhXt0+SFvMrIGDNSZAb3vXomMwhpRCeso9AMYgj1ac0sCyIV96t3OvukjW+p4fOd3aa/+70ReFnU56mEC0PUGzI3VxZ2L6tkTS6rFSe+PWKQSQwYQ4bRgW4Sg96oEAzFRbBC3tfe8SLVL3l8SA3ta7duF1cHrHJeIcp8uHNdHGSHg3DeY3if/VuyHGtmJnf7WuVgHXI+IfHN+odYpwiUGDyZwYjBJzNo7oyXH2xLLaaHJI9nnbneDufvevqzC0lwsBJu1eIYTSKYeBDkKOvQIxL/nmsbZVXjEIlBd3GPFKsZMCMGZi5JKKARXg6Lg1/o6Ppbp3RTwzc6rPtT1V7/uFJvREMGgGFghHz6NLFCZJwQQ1dXl09moFFiYJ6icyqV8t9mEqh518NTHR0zHU7h8SU1fNI+pVuqf1nkUFTIg2NF9QacQpyxGRkZYTyc1kjbcdg65goRccxkBiMGmcSA0YgYdK+exKA3urcTgYtgMfLh9s7XqQHJ403n4Ei7lcT831shykJxScLNQ9cbHs5kpgEjd1eynfXGC1GZATEQ7srGRTPDwMAA8xHLpKKZgUGtB64gc/OTHRmShuTxMJXtLNYnMgeT4CXrDVlZDtFAMr2527Eml5XiEgOBbsRQaCYz0BNpOe8MYISOw5LkofB6Zw8lB9qg/LjUYZ3S9e9fHZQV5ZXWGyBTHbMao8hg+/dc58jxYb53i8GTGSQGkxlqcjw1dybBu1rbZpdP6S6m8qMdabUbJCgr5PHiSr2h3YjAzbJKX+fATB+s4Xjk41DIWfYQ4sz6novQkoGMdlIuYuAwIgbz3kr+rghWb/yv9tSHlHNK90Vnf67dEg/toVAWiivcw/IY8gZb0SzIGPv3BMOuy+Pi1UGJgUA3YijMDDRyoEi2Rgy8l8Ew26lDrqCJhY93dP29XHjc6egt2x9Mgntwm/3LnR7u1BsVWn9/v6ZAc7YE46M4rHF4WEN+iMH/9iRlBsTQ3d3tPj5ljRBxWJK8+nivo/dHehj/lh4+025dNfbvHwvKynLJQzyGvAGymiIImBeZC/17NjoS3Ez2LJOYDvwzAx10rx7H2n+biSKDnRAPhRwEwwfaO+Y7BySP96nB3W3Wl2M9fQp59TGGegODjNhTJgFRyXbqkJvMIDGwjzLJQMa+5wtuXI3wt0SwxuIR8HB7+lMqL3k87cylrWarXRaKK5ST4E7e4B9gJZxFBeFC9FR/lR8jsi98fuIbMbAKYncw9mvElR/gGGJgl92ZIfixqjlXENSEg+KXdUo3bd1LcrWzx7S7+1TOPVi0rijFrXqDjw7KgvCipmUVxrLKaWoQ41AS30VvXDVGY9HMoC1gteWNiKm2NuvrgXbq+JzOH+vI+Pf3QVlZrtAvykUwN4+n3gCZbhVVZllVt6jMgBjIDBKDyQkGMWUGurGm4jj6bzN2ZJCqzEMhB6RyvqOt411qSPJYSA3k251nOtYDkj1WzlNxmBwWmLN7bk4BSkhpWeVurzmXGJjyJQY+oaLfyEBGO8KWGLQLvFcbwdYPTwhlHn6qPfPV1gY+3ZHVa6aPwrRWPLZ6A97X1zdiz8FadUTeTuWcyE4VPHFVnw0NiEsMg4ODEgNv1HvByH83aa7BqysOVshvtfdIG3+nhyftU7r+/Q33YKhaIgiPUm+U4oTjiB1zTM+VbCca56+TGRAD6ctkBrfx2SQG91caov0tWeW8iWBve8fzzn7J42Mqv7/dugRkXpWF4gpxw0Uwf16ILfwPLcKkyLLcH4lLZmWmap8+cSHB7RaDyQlupJ1Xda8ebzHvDY5hj0/1eWQkgBLiYfFAR3pxufCYS/X32I+a9ulfIQbMHhXVGw5zcaLQmqK3b2dZ5W7HKudkBkKcP1EqM2DKDBJDs2ZIFGWhuMKuKJ/q6La+HoinrGfpmvYg742Li2DicdYbIOGrOZvpvJLtiCszGDGw5ZHVNYPJDCyT6En/otupCddBbzgO1oTzjwfLp3S/pobHOqxnYakPWBO+Um/EhSyoiF3i1aePG2XiBLcyg7mLu9AkBrRHT6Ro3isr3H4T6wplRflQW8dCyrmX5G1qcEe7dREZU8gW5SKYP4+GoeuNspxCfMSuyAncUn0Mxwjxnp4eIwbeW5gZ0BuCqbfMUCGPBQmUKvCq4fH29Je0cy/Jo44s63L//oUYOUsYbjDmegOj0rCmd/u3ZAv7ENy6PansjatkBsRQKjPI1gavIcpi4QqvyvnV9m7nXpL08KV260nkaq9km3ARLDhfqTe0oco5qAxAKqCdfyIGMgNi0HJrxKUHcZCXjBjQT4S/2+SGg/XGPegzc3e1d8x25pQ6llL50TbrpI5P/+R4/PUGxrLKRLwtAa/pJbqhGS29/LfZxLpFWWSucDRcZHd75/vlU7rznf251pU3mj6YeHLo1BuVIPtGZmDK92QGg6oZMMTAaspkBp9trknkQNWQNxae6+j6Zq+s8LudfWqPnAEMD4VR8game/XcN64iALfRCOpePd1CYt6L1Q9fAyiLhSuM6oQjCWnj79TwufYun/4iWHAeBAPVGxjx3WU/V09iwKQBTMKgxWQGOlNs0E4LGym6zSYXBxuRe1Bzbbw8u61tPuXcS/K+c+ivduu5JD79I3AGohTftm3b/wc6i9eqfstTHwAAAABJRU5ErkJggg==;" vertex="1" parent="WIyWlLk6GJQsqaUBKTNV-1">
          <mxGeometry x="426.5" y="59.31" width="95" height="81.38" as="geometry" />
        </mxCell>
        <mxCell id="w42pXRV3Yn0JbkUwSTeH-5" value="" style="endArrow=none;dashed=1;html=1;dashPattern=1 3;strokeWidth=2;rounded=0;entryX=0;entryY=0.5;entryDx=0;entryDy=0;exitX=1;exitY=0.5;exitDx=0;exitDy=0;" edge="1" parent="WIyWlLk6GJQsqaUBKTNV-1" source="w42pXRV3Yn0JbkUwSTeH-0" target="w42pXRV3Yn0JbkUwSTeH-4">
          <mxGeometry width="50" height="50" relative="1" as="geometry">
            <mxPoint x="497.5" y="360" as="sourcePoint" />
            <mxPoint x="547.5" y="310" as="targetPoint" />
          </mxGeometry>
        </mxCell>
        <mxCell id="w42pXRV3Yn0JbkUwSTeH-7" value="Duplicate Mesh&lt;br&gt;Move copy to 0,0,0&lt;br&gt;Add to modules list" style="rounded=1;whiteSpace=wrap;html=1;fontSize=12;glass=0;strokeWidth=1;shadow=0;" vertex="1" parent="WIyWlLk6GJQsqaUBKTNV-1">
          <mxGeometry x="267.5" y="170" width="120" height="60" as="geometry" />
        </mxCell>
        <mxCell id="w42pXRV3Yn0JbkUwSTeH-10" value="" style="rounded=0;html=1;jettySize=auto;orthogonalLoop=1;fontSize=11;endArrow=block;endFill=0;endSize=8;strokeWidth=1;shadow=0;labelBackgroundColor=none;edgeStyle=orthogonalEdgeStyle;entryX=0.5;entryY=0;entryDx=0;entryDy=0;exitX=0.5;exitY=1;exitDx=0;exitDy=0;" edge="1" parent="WIyWlLk6GJQsqaUBKTNV-1" source="w42pXRV3Yn0JbkUwSTeH-7" target="w42pXRV3Yn0JbkUwSTeH-21">
          <mxGeometry relative="1" as="geometry">
            <mxPoint x="337.5" y="130" as="sourcePoint" />
            <mxPoint x="327.5" y="277" as="targetPoint" />
          </mxGeometry>
        </mxCell>
        <mxCell id="w42pXRV3Yn0JbkUwSTeH-26" value="" style="edgeStyle=orthogonalEdgeStyle;rounded=0;orthogonalLoop=1;jettySize=auto;html=1;entryX=0.5;entryY=0;entryDx=0;entryDy=0;" edge="1" parent="WIyWlLk6GJQsqaUBKTNV-1" source="w42pXRV3Yn0JbkUwSTeH-21" target="w42pXRV3Yn0JbkUwSTeH-23">
          <mxGeometry relative="1" as="geometry" />
        </mxCell>
        <mxCell id="w42pXRV3Yn0JbkUwSTeH-21" value="foreach Mesh" style="swimlane;whiteSpace=wrap;html=1;" vertex="1" parent="WIyWlLk6GJQsqaUBKTNV-1">
          <mxGeometry x="227.5" y="280" width="200" height="160" as="geometry" />
        </mxCell>
        <mxCell id="w42pXRV3Yn0JbkUwSTeH-20" value="Find Connections / Edges" style="shape=process;whiteSpace=wrap;html=1;backgroundOutline=1;" vertex="1" parent="w42pXRV3Yn0JbkUwSTeH-21">
          <mxGeometry x="40" y="60" width="120" height="60" as="geometry" />
        </mxCell>
        <mxCell id="w42pXRV3Yn0JbkUwSTeH-23" value="foreach Connection" style="swimlane;whiteSpace=wrap;html=1;" vertex="1" parent="WIyWlLk6GJQsqaUBKTNV-1">
          <mxGeometry x="40" y="480" width="575" height="240" as="geometry" />
        </mxCell>
        <mxCell id="w42pXRV3Yn0JbkUwSTeH-29" value="No" style="edgeStyle=orthogonalEdgeStyle;rounded=0;orthogonalLoop=1;jettySize=auto;html=1;entryX=0;entryY=0.5;entryDx=0;entryDy=0;" edge="1" parent="w42pXRV3Yn0JbkUwSTeH-23" source="w42pXRV3Yn0JbkUwSTeH-27" target="w42pXRV3Yn0JbkUwSTeH-33">
          <mxGeometry relative="1" as="geometry" />
        </mxCell>
        <mxCell id="w42pXRV3Yn0JbkUwSTeH-27" value="Connection exists in Dictionary" style="rhombus;whiteSpace=wrap;html=1;" vertex="1" parent="w42pXRV3Yn0JbkUwSTeH-23">
          <mxGeometry x="35" y="60" width="130" height="100" as="geometry" />
        </mxCell>
        <mxCell id="w42pXRV3Yn0JbkUwSTeH-28" value="Add &quot;s&quot; Connection to Dictionary" style="rounded=1;whiteSpace=wrap;html=1;" vertex="1" parent="w42pXRV3Yn0JbkUwSTeH-23">
          <mxGeometry x="415" y="80" width="120" height="60" as="geometry" />
        </mxCell>
        <mxCell id="w42pXRV3Yn0JbkUwSTeH-35" style="edgeStyle=orthogonalEdgeStyle;rounded=0;orthogonalLoop=1;jettySize=auto;html=1;exitX=1;exitY=0.5;exitDx=0;exitDy=0;entryX=0;entryY=0.5;entryDx=0;entryDy=0;" edge="1" parent="w42pXRV3Yn0JbkUwSTeH-23" source="w42pXRV3Yn0JbkUwSTeH-33" target="w42pXRV3Yn0JbkUwSTeH-28">
          <mxGeometry relative="1" as="geometry">
            <mxPoint x="395" y="110" as="sourcePoint" />
          </mxGeometry>
        </mxCell>
        <mxCell id="w42pXRV3Yn0JbkUwSTeH-38" value="Yes" style="edgeLabel;html=1;align=center;verticalAlign=middle;resizable=0;points=[];" vertex="1" connectable="0" parent="w42pXRV3Yn0JbkUwSTeH-35">
          <mxGeometry x="-0.075" y="4" relative="1" as="geometry">
            <mxPoint as="offset" />
          </mxGeometry>
        </mxCell>
        <mxCell id="w42pXRV3Yn0JbkUwSTeH-36" style="edgeStyle=orthogonalEdgeStyle;rounded=0;orthogonalLoop=1;jettySize=auto;html=1;exitX=0.5;exitY=1;exitDx=0;exitDy=0;entryX=0;entryY=0.5;entryDx=0;entryDy=0;" edge="1" parent="w42pXRV3Yn0JbkUwSTeH-23" source="w42pXRV3Yn0JbkUwSTeH-33" target="w42pXRV3Yn0JbkUwSTeH-34">
          <mxGeometry relative="1" as="geometry" />
        </mxCell>
        <mxCell id="w42pXRV3Yn0JbkUwSTeH-37" value="No" style="edgeLabel;html=1;align=center;verticalAlign=middle;resizable=0;points=[];" vertex="1" connectable="0" parent="w42pXRV3Yn0JbkUwSTeH-36">
          <mxGeometry x="0.104" y="1" relative="1" as="geometry">
            <mxPoint as="offset" />
          </mxGeometry>
        </mxCell>
        <mxCell id="w42pXRV3Yn0JbkUwSTeH-33" value="Symmetrical Connection" style="rhombus;whiteSpace=wrap;html=1;" vertex="1" parent="w42pXRV3Yn0JbkUwSTeH-23">
          <mxGeometry x="205" y="60" width="130" height="100" as="geometry" />
        </mxCell>
        <mxCell id="w42pXRV3Yn0JbkUwSTeH-34" value="Add &quot;f&quot; and normal Connection to Dictionary" style="rounded=1;whiteSpace=wrap;html=1;" vertex="1" parent="w42pXRV3Yn0JbkUwSTeH-23">
          <mxGeometry x="415" y="170" width="120" height="60" as="geometry" />
        </mxCell>
      </root>
    </mxGraphModel>
  </diagram>
</mxfile>
